<mxfile host="app.diagrams.net" agent="Mozilla/5.0 (Windows NT 10.0; Win64; x64) AppleWebKit/537.36 (KHTML, like Gecko) Chrome/140.0.0.0 Safari/537.36" version="28.1.1">
  <diagram name="Page-1" id="wmw6oJrFdoQoXgRY6WsX">
    <mxGraphModel dx="616" dy="952" grid="1" gridSize="10" guides="1" tooltips="1" connect="1" arrows="1" fold="1" page="1" pageScale="1" pageWidth="850" pageHeight="1100" math="0" shadow="0">
      <root>
        <mxCell id="0" />
        <mxCell id="1" parent="0" />
        <mxCell id="Du8iLtrFkereJqny7EIQ-19" value="Dental&lt;span style=&quot;background-color: transparent; color: light-dark(rgb(0, 0, 0), rgb(255, 255, 255));&quot;&gt;&amp;nbsp;Appointment System&lt;/span&gt;" style="swimlane;whiteSpace=wrap;html=1;" parent="1" vertex="1">
          <mxGeometry x="220" y="240" width="410" height="530" as="geometry" />
        </mxCell>
        <mxCell id="Du8iLtrFkereJqny7EIQ-28" value="Book appointment" style="ellipse;whiteSpace=wrap;html=1;align=center;" parent="Du8iLtrFkereJqny7EIQ-19" vertex="1">
          <mxGeometry x="80" y="100" width="100" height="40" as="geometry" />
        </mxCell>
        <mxCell id="Du8iLtrFkereJqny7EIQ-29" value="Modify appointment" style="ellipse;whiteSpace=wrap;html=1;align=center;" parent="Du8iLtrFkereJqny7EIQ-19" vertex="1">
          <mxGeometry x="290" y="230" width="100" height="40" as="geometry" />
        </mxCell>
        <mxCell id="Du8iLtrFkereJqny7EIQ-32" value="" style="endArrow=none;dashed=1;html=1;rounded=0;entryX=0.5;entryY=0;entryDx=0;entryDy=0;exitX=1;exitY=0.5;exitDx=0;exitDy=0;startArrow=classicThin;startFill=1;" parent="Du8iLtrFkereJqny7EIQ-19" source="Du8iLtrFkereJqny7EIQ-28" target="Du8iLtrFkereJqny7EIQ-29" edge="1">
          <mxGeometry width="50" height="50" relative="1" as="geometry">
            <mxPoint x="180" y="160" as="sourcePoint" />
            <mxPoint x="230" y="110" as="targetPoint" />
          </mxGeometry>
        </mxCell>
        <mxCell id="Du8iLtrFkereJqny7EIQ-33" value="&amp;lt;&amp;lt;extends&amp;gt;&amp;gt;" style="edgeLabel;html=1;align=center;verticalAlign=middle;resizable=0;points=[];" parent="Du8iLtrFkereJqny7EIQ-32" vertex="1" connectable="0">
          <mxGeometry x="0.0327" y="2" relative="1" as="geometry">
            <mxPoint as="offset" />
          </mxGeometry>
        </mxCell>
        <mxCell id="Du8iLtrFkereJqny7EIQ-56" style="edgeStyle=none;rounded=0;orthogonalLoop=1;jettySize=auto;html=1;endArrow=none;endFill=0;exitX=0;exitY=0.5;exitDx=0;exitDy=0;entryX=1;entryY=0.3333333333333333;entryDx=0;entryDy=0;entryPerimeter=0;" parent="Du8iLtrFkereJqny7EIQ-19" source="Du8iLtrFkereJqny7EIQ-34" target="Du8iLtrFkereJqny7EIQ-24" edge="1">
          <mxGeometry relative="1" as="geometry">
            <mxPoint x="-30" y="270" as="targetPoint" />
          </mxGeometry>
        </mxCell>
        <mxCell id="Du8iLtrFkereJqny7EIQ-34" value="Send Message" style="ellipse;whiteSpace=wrap;html=1;align=center;" parent="Du8iLtrFkereJqny7EIQ-19" vertex="1">
          <mxGeometry x="80" y="150" width="100" height="40" as="geometry" />
        </mxCell>
        <mxCell id="Du8iLtrFkereJqny7EIQ-43" value="View Calendar" style="ellipse;whiteSpace=wrap;html=1;align=center;" parent="Du8iLtrFkereJqny7EIQ-19" vertex="1">
          <mxGeometry x="80" y="245" width="100" height="40" as="geometry" />
        </mxCell>
        <mxCell id="Du8iLtrFkereJqny7EIQ-60" style="edgeStyle=none;rounded=0;orthogonalLoop=1;jettySize=auto;html=1;endArrow=none;endFill=0;" parent="Du8iLtrFkereJqny7EIQ-19" source="Du8iLtrFkereJqny7EIQ-58" edge="1">
          <mxGeometry relative="1" as="geometry">
            <mxPoint x="-30" y="120" as="targetPoint" />
          </mxGeometry>
        </mxCell>
        <mxCell id="Du8iLtrFkereJqny7EIQ-58" value="Create/View Profile" style="ellipse;whiteSpace=wrap;html=1;align=center;" parent="Du8iLtrFkereJqny7EIQ-19" vertex="1">
          <mxGeometry x="80" y="320" width="100" height="40" as="geometry" />
        </mxCell>
        <mxCell id="Du8iLtrFkereJqny7EIQ-63" style="edgeStyle=none;rounded=0;orthogonalLoop=1;jettySize=auto;html=1;endArrow=none;endFill=0;exitX=0;exitY=0.5;exitDx=0;exitDy=0;" parent="Du8iLtrFkereJqny7EIQ-19" source="Du8iLtrFkereJqny7EIQ-62" edge="1">
          <mxGeometry relative="1" as="geometry">
            <mxPoint x="-30" y="120" as="targetPoint" />
          </mxGeometry>
        </mxCell>
        <mxCell id="Du8iLtrFkereJqny7EIQ-62" value="Search dentist" style="ellipse;whiteSpace=wrap;html=1;align=center;" parent="Du8iLtrFkereJqny7EIQ-19" vertex="1">
          <mxGeometry x="80" y="40" width="100" height="40" as="geometry" />
        </mxCell>
        <mxCell id="Du8iLtrFkereJqny7EIQ-24" value="Dentist" style="shape=umlActor;verticalLabelPosition=bottom;verticalAlign=top;html=1;outlineConnect=0;" parent="Du8iLtrFkereJqny7EIQ-19" vertex="1">
          <mxGeometry x="-60" y="310" width="30" height="60" as="geometry" />
        </mxCell>
        <mxCell id="Du8iLtrFkereJqny7EIQ-46" style="edgeStyle=none;rounded=0;orthogonalLoop=1;jettySize=auto;html=1;exitX=0;exitY=0.5;exitDx=0;exitDy=0;entryX=1;entryY=0.3333333333333333;entryDx=0;entryDy=0;entryPerimeter=0;endArrow=none;endFill=0;" parent="Du8iLtrFkereJqny7EIQ-19" source="Du8iLtrFkereJqny7EIQ-43" target="Du8iLtrFkereJqny7EIQ-24" edge="1">
          <mxGeometry relative="1" as="geometry" />
        </mxCell>
        <mxCell id="Du8iLtrFkereJqny7EIQ-47" value="Update availability/schedule" style="ellipse;whiteSpace=wrap;html=1;align=center;" parent="Du8iLtrFkereJqny7EIQ-19" vertex="1">
          <mxGeometry x="45" y="370" width="170" height="40" as="geometry" />
        </mxCell>
        <mxCell id="Du8iLtrFkereJqny7EIQ-48" style="edgeStyle=none;rounded=0;orthogonalLoop=1;jettySize=auto;html=1;exitX=0;exitY=0.5;exitDx=0;exitDy=0;endArrow=none;endFill=0;entryX=1;entryY=0.3333333333333333;entryDx=0;entryDy=0;entryPerimeter=0;" parent="Du8iLtrFkereJqny7EIQ-19" source="Du8iLtrFkereJqny7EIQ-47" target="Du8iLtrFkereJqny7EIQ-24" edge="1">
          <mxGeometry relative="1" as="geometry" />
        </mxCell>
        <mxCell id="Du8iLtrFkereJqny7EIQ-49" value="View patients/records" style="ellipse;whiteSpace=wrap;html=1;align=center;" parent="Du8iLtrFkereJqny7EIQ-19" vertex="1">
          <mxGeometry x="65" y="480" width="130" height="40" as="geometry" />
        </mxCell>
        <mxCell id="Du8iLtrFkereJqny7EIQ-23" value="Clinic" style="shape=umlActor;verticalLabelPosition=bottom;verticalAlign=top;html=1;outlineConnect=0;" parent="Du8iLtrFkereJqny7EIQ-19" vertex="1">
          <mxGeometry x="-60" y="450" width="30" height="60" as="geometry" />
        </mxCell>
        <mxCell id="Du8iLtrFkereJqny7EIQ-50" style="edgeStyle=none;rounded=0;orthogonalLoop=1;jettySize=auto;html=1;endArrow=none;endFill=0;entryX=1;entryY=0.3333333333333333;entryDx=0;entryDy=0;entryPerimeter=0;exitX=0;exitY=0.5;exitDx=0;exitDy=0;" parent="Du8iLtrFkereJqny7EIQ-19" source="Du8iLtrFkereJqny7EIQ-49" target="Du8iLtrFkereJqny7EIQ-24" edge="1">
          <mxGeometry relative="1" as="geometry" />
        </mxCell>
        <mxCell id="Du8iLtrFkereJqny7EIQ-57" style="rounded=0;orthogonalLoop=1;jettySize=auto;html=1;exitX=1;exitY=0.3333333333333333;exitDx=0;exitDy=0;exitPerimeter=0;entryX=0.5;entryY=1;entryDx=0;entryDy=0;endArrow=none;endFill=0;" parent="Du8iLtrFkereJqny7EIQ-19" source="Du8iLtrFkereJqny7EIQ-24" target="Du8iLtrFkereJqny7EIQ-29" edge="1">
          <mxGeometry relative="1" as="geometry" />
        </mxCell>
        <mxCell id="Du8iLtrFkereJqny7EIQ-59" style="edgeStyle=none;rounded=0;orthogonalLoop=1;jettySize=auto;html=1;exitX=0;exitY=0.5;exitDx=0;exitDy=0;entryX=1;entryY=0.3333333333333333;entryDx=0;entryDy=0;entryPerimeter=0;endArrow=none;endFill=0;" parent="Du8iLtrFkereJqny7EIQ-19" source="Du8iLtrFkereJqny7EIQ-58" target="Du8iLtrFkereJqny7EIQ-24" edge="1">
          <mxGeometry relative="1" as="geometry" />
        </mxCell>
        <mxCell id="Du8iLtrFkereJqny7EIQ-54" style="edgeStyle=none;rounded=0;orthogonalLoop=1;jettySize=auto;html=1;entryX=0;entryY=0.5;entryDx=0;entryDy=0;endArrow=none;endFill=0;exitX=1;exitY=0.3333333333333333;exitDx=0;exitDy=0;exitPerimeter=0;" parent="Du8iLtrFkereJqny7EIQ-19" source="Du8iLtrFkereJqny7EIQ-23" target="Du8iLtrFkereJqny7EIQ-49" edge="1">
          <mxGeometry relative="1" as="geometry" />
        </mxCell>
        <mxCell id="Du8iLtrFkereJqny7EIQ-66" style="edgeStyle=none;rounded=0;orthogonalLoop=1;jettySize=auto;html=1;endArrow=none;endFill=0;" parent="Du8iLtrFkereJqny7EIQ-19" source="Du8iLtrFkereJqny7EIQ-65" edge="1">
          <mxGeometry relative="1" as="geometry">
            <mxPoint x="-30" y="120" as="targetPoint" />
          </mxGeometry>
        </mxCell>
        <mxCell id="Du8iLtrFkereJqny7EIQ-65" value="Upload documents" style="ellipse;whiteSpace=wrap;html=1;align=center;" parent="Du8iLtrFkereJqny7EIQ-19" vertex="1">
          <mxGeometry x="230" y="60" width="100" height="40" as="geometry" />
        </mxCell>
        <mxCell id="Du8iLtrFkereJqny7EIQ-68" style="edgeStyle=none;rounded=0;orthogonalLoop=1;jettySize=auto;html=1;endArrow=none;endFill=0;exitX=0;exitY=0.5;exitDx=0;exitDy=0;entryX=1;entryY=0.3333333333333333;entryDx=0;entryDy=0;entryPerimeter=0;" parent="Du8iLtrFkereJqny7EIQ-19" source="Du8iLtrFkereJqny7EIQ-67" target="Du8iLtrFkereJqny7EIQ-24" edge="1">
          <mxGeometry relative="1" as="geometry" />
        </mxCell>
        <mxCell id="Du8iLtrFkereJqny7EIQ-67" value="View documents" style="ellipse;whiteSpace=wrap;html=1;align=center;" parent="Du8iLtrFkereJqny7EIQ-19" vertex="1">
          <mxGeometry x="80" y="420" width="100" height="40" as="geometry" />
        </mxCell>
        <mxCell id="iMH_Mup8wx5sH2gppS-h-2" style="edgeStyle=none;rounded=0;orthogonalLoop=1;jettySize=auto;html=1;endArrow=none;endFill=0;exitX=0;exitY=0.5;exitDx=0;exitDy=0;entryX=1;entryY=0.3333333333333333;entryDx=0;entryDy=0;entryPerimeter=0;" edge="1" parent="Du8iLtrFkereJqny7EIQ-19" source="iMH_Mup8wx5sH2gppS-h-3" target="Du8iLtrFkereJqny7EIQ-24">
          <mxGeometry relative="1" as="geometry">
            <mxPoint x="-45" y="350" as="targetPoint" />
          </mxGeometry>
        </mxCell>
        <mxCell id="iMH_Mup8wx5sH2gppS-h-3" value="Read Message" style="ellipse;whiteSpace=wrap;html=1;align=center;" vertex="1" parent="Du8iLtrFkereJqny7EIQ-19">
          <mxGeometry x="80" y="190" width="100" height="40" as="geometry" />
        </mxCell>
        <mxCell id="Du8iLtrFkereJqny7EIQ-20" value="Patient" style="shape=umlActor;verticalLabelPosition=bottom;verticalAlign=top;html=1;outlineConnect=0;" parent="1" vertex="1">
          <mxGeometry x="160" y="340" width="30" height="60" as="geometry" />
        </mxCell>
        <mxCell id="Du8iLtrFkereJqny7EIQ-51" style="edgeStyle=none;rounded=0;orthogonalLoop=1;jettySize=auto;html=1;entryX=1;entryY=0.5;entryDx=0;entryDy=0;endArrow=none;endFill=0;exitX=0;exitY=0.3333333333333333;exitDx=0;exitDy=0;exitPerimeter=0;" parent="1" source="Du8iLtrFkereJqny7EIQ-25" target="Du8iLtrFkereJqny7EIQ-49" edge="1">
          <mxGeometry relative="1" as="geometry" />
        </mxCell>
        <mxCell id="Du8iLtrFkereJqny7EIQ-25" value="db/System" style="shape=umlActor;verticalLabelPosition=bottom;verticalAlign=top;html=1;outlineConnect=0;" parent="1" vertex="1">
          <mxGeometry x="720" y="475" width="30" height="60" as="geometry" />
        </mxCell>
        <mxCell id="Du8iLtrFkereJqny7EIQ-42" value="" style="endArrow=none;html=1;rounded=0;exitX=1;exitY=0.3333333333333333;exitDx=0;exitDy=0;exitPerimeter=0;entryX=0;entryY=0.5;entryDx=0;entryDy=0;" parent="1" source="Du8iLtrFkereJqny7EIQ-20" target="Du8iLtrFkereJqny7EIQ-34" edge="1">
          <mxGeometry width="50" height="50" relative="1" as="geometry">
            <mxPoint x="280" y="460" as="sourcePoint" />
            <mxPoint x="390" y="410" as="targetPoint" />
          </mxGeometry>
        </mxCell>
        <mxCell id="Du8iLtrFkereJqny7EIQ-44" value="" style="endArrow=none;html=1;rounded=0;entryX=0;entryY=0.5;entryDx=0;entryDy=0;" parent="1" target="Du8iLtrFkereJqny7EIQ-43" edge="1">
          <mxGeometry width="50" height="50" relative="1" as="geometry">
            <mxPoint x="190" y="360" as="sourcePoint" />
            <mxPoint x="370" y="400" as="targetPoint" />
          </mxGeometry>
        </mxCell>
        <mxCell id="Du8iLtrFkereJqny7EIQ-52" style="edgeStyle=none;rounded=0;orthogonalLoop=1;jettySize=auto;html=1;endArrow=none;endFill=0;entryX=0;entryY=0.3333333333333333;entryDx=0;entryDy=0;entryPerimeter=0;" parent="1" source="Du8iLtrFkereJqny7EIQ-47" target="Du8iLtrFkereJqny7EIQ-25" edge="1">
          <mxGeometry relative="1" as="geometry" />
        </mxCell>
        <mxCell id="Du8iLtrFkereJqny7EIQ-53" style="edgeStyle=none;rounded=0;orthogonalLoop=1;jettySize=auto;html=1;exitX=1;exitY=0.5;exitDx=0;exitDy=0;endArrow=none;endFill=0;entryX=0;entryY=0.3333333333333333;entryDx=0;entryDy=0;entryPerimeter=0;" parent="1" source="Du8iLtrFkereJqny7EIQ-29" target="Du8iLtrFkereJqny7EIQ-25" edge="1">
          <mxGeometry relative="1" as="geometry" />
        </mxCell>
        <mxCell id="Du8iLtrFkereJqny7EIQ-61" style="edgeStyle=none;rounded=0;orthogonalLoop=1;jettySize=auto;html=1;endArrow=none;endFill=0;entryX=0;entryY=0.3333333333333333;entryDx=0;entryDy=0;entryPerimeter=0;" parent="1" source="Du8iLtrFkereJqny7EIQ-58" target="Du8iLtrFkereJqny7EIQ-25" edge="1">
          <mxGeometry relative="1" as="geometry" />
        </mxCell>
        <mxCell id="Du8iLtrFkereJqny7EIQ-31" value="" style="endArrow=none;html=1;rounded=0;exitX=1;exitY=0.3333333333333333;exitDx=0;exitDy=0;exitPerimeter=0;entryX=0;entryY=0.5;entryDx=0;entryDy=0;" parent="1" source="Du8iLtrFkereJqny7EIQ-20" target="Du8iLtrFkereJqny7EIQ-28" edge="1">
          <mxGeometry width="50" height="50" relative="1" as="geometry">
            <mxPoint x="250" y="360" as="sourcePoint" />
            <mxPoint x="300" y="310" as="targetPoint" />
          </mxGeometry>
        </mxCell>
        <mxCell id="Du8iLtrFkereJqny7EIQ-69" style="edgeStyle=none;rounded=0;orthogonalLoop=1;jettySize=auto;html=1;endArrow=none;endFill=0;entryX=0;entryY=0.3333333333333333;entryDx=0;entryDy=0;entryPerimeter=0;" parent="1" source="Du8iLtrFkereJqny7EIQ-67" target="Du8iLtrFkereJqny7EIQ-25" edge="1">
          <mxGeometry relative="1" as="geometry" />
        </mxCell>
        <mxCell id="Du8iLtrFkereJqny7EIQ-70" style="edgeStyle=none;rounded=0;orthogonalLoop=1;jettySize=auto;html=1;startArrow=none;startFill=0;endArrow=none;endFill=0;entryX=0;entryY=0.3333333333333333;entryDx=0;entryDy=0;entryPerimeter=0;" parent="1" source="Du8iLtrFkereJqny7EIQ-65" target="Du8iLtrFkereJqny7EIQ-25" edge="1">
          <mxGeometry relative="1" as="geometry" />
        </mxCell>
        <mxCell id="iMH_Mup8wx5sH2gppS-h-4" value="" style="endArrow=none;html=1;rounded=0;exitX=1;exitY=0.3333333333333333;exitDx=0;exitDy=0;exitPerimeter=0;entryX=0;entryY=0.5;entryDx=0;entryDy=0;" edge="1" parent="1" target="iMH_Mup8wx5sH2gppS-h-3" source="Du8iLtrFkereJqny7EIQ-20">
          <mxGeometry width="50" height="50" relative="1" as="geometry">
            <mxPoint x="190" y="400" as="sourcePoint" />
            <mxPoint x="390" y="450" as="targetPoint" />
          </mxGeometry>
        </mxCell>
      </root>
    </mxGraphModel>
  </diagram>
</mxfile>
